<?xml version="1.0" encoding="utf-8"?>
<!-- Generator: Adobe Illustrator 25.2.2, SVG Export Plug-In . SVG Version: 6.00 Build 0)  -->
<svg version="1.1" id="Ebene_1" xmlns="http://www.w3.org/2000/svg" xmlns:xlink="http://www.w3.org/1999/xlink" x="0px" y="0px"
	 viewBox="0 0 377 160" style="enable-background:new 0 0 377 160;" xml:space="preserve">
<g>
	<path d="M68.7,149.7H40.5V40.9L6.8,51.4V28.4L65.7,7.3h3V149.7z"/>
</g>
<g>
	<path d="M162.7,93.7c0,19.7-3.6,34.7-10.9,45.1c-7.2,10.4-17.8,15.6-31.8,15.6c-13.8,0-24.3-5.1-31.6-15.3
		c-7.3-10.2-11-24.9-11.2-43.9V69c0-19.9,3.7-34.9,11-45.2C95.5,13.5,106,8.3,119.8,8.3c13.8,0,24.3,5.1,31.6,15.3
		c7.3,10.2,11,24.8,11.2,43.9V93.7z M137.5,64.9c0-11.8-1.4-20.4-4.3-25.8c-2.9-5.4-7.3-8.1-13.4-8.1c-5.9,0-10.3,2.6-13.1,7.7
		c-2.8,5.1-4.3,13.1-4.5,24v34.6c0,11.6,1.4,20.2,4.2,25.9c2.8,5.6,7.3,8.5,13.5,8.5c6.1,0,10.6-2.7,13.3-8.1
		c2.7-5.4,4.1-13.7,4.3-24.8V64.9z"/>
	<path d="M251.4,93.7c0,19.7-3.6,34.7-10.9,45.1c-7.2,10.4-17.8,15.6-31.8,15.6c-13.8,0-24.3-5.1-31.6-15.3
		c-7.3-10.2-11-24.9-11.2-43.9V69c0-19.9,3.7-34.9,11-45.2c7.3-10.3,17.9-15.4,31.7-15.4c13.8,0,24.3,5.1,31.6,15.3
		c7.3,10.2,11,24.8,11.2,43.9V93.7z M226.3,64.9c0-11.8-1.4-20.4-4.3-25.8c-2.9-5.4-7.3-8.1-13.4-8.1c-5.9,0-10.3,2.6-13.1,7.7
		c-2.8,5.1-4.3,13.1-4.5,24v34.6c0,11.6,1.4,20.2,4.2,25.9c2.8,5.6,7.3,8.5,13.5,8.5c6.1,0,10.6-2.7,13.3-8.1
		c2.7-5.4,4.1-13.7,4.3-24.8V64.9z"/>
	<path d="M254.7,37.6c0-8.7,2.5-15.8,7.6-21.2c5-5.4,11.6-8.2,19.8-8.2c8.3,0,14.9,2.7,20,8.1s7.6,12.6,7.6,21.8v7
		c0,8.8-2.5,15.9-7.6,21.2c-5,5.3-11.6,8-19.8,8c-8.2,0-14.9-2.7-19.9-8.1c-5.1-5.4-7.6-12.6-7.6-21.7V37.6z M271.4,45.1
		c0,3.9,1,7,3,9.4c2,2.4,4.6,3.6,7.9,3.6c3.2,0,5.8-1.2,7.7-3.6c1.9-2.4,2.9-5.6,2.9-9.7v-7.2c0-3.9-1-7.1-2.9-9.5
		c-1.9-2.4-4.5-3.6-7.9-3.6c-3.2,0-5.8,1.2-7.7,3.6c-2,2.4-3,5.7-3,9.9V45.1z M287.2,141.8l-12.3-7.4l61.8-111.1l12.3,7.4
		L287.2,141.8z M315.2,117.6c0-8.8,2.5-15.9,7.6-21.2c5.1-5.4,11.7-8.1,19.8-8.1c8.2,0,14.9,2.7,19.9,8c5.1,5.3,7.6,12.6,7.6,21.9v7
		c0,8.7-2.5,15.8-7.5,21.1c-5,5.4-11.6,8.1-19.9,8.1c-8.3,0-15-2.7-20.1-8.1c-5-5.4-7.6-12.6-7.6-21.5V117.6z M331.9,125.2
		c0,3.6,1,6.6,3.1,9.2s4.7,3.8,7.8,3.8c7.1,0,10.6-4.4,10.6-13.2v-7.4c0-3.9-1-7-3-9.4c-2-2.4-4.6-3.6-7.8-3.6
		c-3.2,0-5.9,1.2-7.8,3.6c-2,2.4-3,5.6-3,9.7V125.2z"/>
</g>
</svg>
