<?xml version="1.0" encoding="utf-8"?>
<!-- Generator: Adobe Illustrator 25.2.1, SVG Export Plug-In . SVG Version: 6.00 Build 0)  -->
<svg version="1.1" id="Capa_1" xmlns="http://www.w3.org/2000/svg" xmlns:xlink="http://www.w3.org/1999/xlink" x="0px" y="0px"
	 viewBox="0 0 512 512" style="enable-background:new 0 0 512 512;" xml:space="preserve">
<g>
	<path d="M147,322.7c-6.9,7.8-8.2,18.9-3.9,27.9l-31.2,31.2c-3.3,3.3-3.3,8.7,0,12c1.7,1.7,3.8,2.5,6,2.5s4.3-0.8,6-2.5l31.2-31.2
		c3.5,1.7,7.3,2.5,11.1,2.5c6,0,12.1-2.1,16.9-6.4L147,322.7z"/>
	<path d="M293.2,140.1c-3.3-3.3-8.7-3.3-12,0c-3.3,3.3-3.3,8.7,0,12l6.1,6.1l-88.4,88.4l60.8,59.7l87.9-87.9l6.1,6.1
		c1.7,1.7,3.8,2.5,6,2.5s4.3-0.8,6-2.5c3.3-3.3,3.3-8.7,0-12L293.2,140.1z"/>
	<path d="M396,168.3l-58.6-58.6c-3.3-3.3-8.7-3.3-12,0c-3.3,3.3-3.3,8.7,0,12l11.2,11.2l-13.3,13.3l36.1,36.1l13.3-13.3l11.2,11.2
		c1.7,1.7,3.8,2.5,6,2.5s4.3-0.8,6-2.5C399.4,177,399.4,171.6,396,168.3L396,168.3z"/>
	<path d="M202.5,243.1l-37.8,37.8c-5.1,5.1-8,12-8,19.2c0,3.7,0.7,7.2,2.1,10.5l36.3,36.3c3.3,1.4,6.9,2.1,10.5,2.1
		c7.3,0,14.1-2.8,19.2-8l37.8-37.8L202.5,243.1z"/>
</g>
<rect x="19.9" y="238" transform="matrix(0.7071 0.7071 -0.7071 0.7071 259.8133 -108.7747)" width="482.6" height="42.4"/>
</svg>
