<svg id="Capa_1" enable-background="new 0 0 512 512" height="512" viewBox="0 0 512 512" width="512" xmlns="http://www.w3.org/2000/svg"><g><g><path d="m259.806 7.611c-139.283 0-252.194 112.912-252.194 252.195s112.911 252.194 252.194 252.194 252.194-112.912 252.194-252.194-112.911-252.195-252.194-252.195zm0 463.381c-116.449 0-211.187-94.738-211.187-211.187s94.738-211.186 211.187-211.186 211.187 94.738 211.187 211.187-94.738 211.186-211.187 211.186z" fill="#e28086"/></g><g><path d="m259.806 7.611c-139.283 0-252.194 112.912-252.194 252.195s112.911 252.194 252.194 252.194 252.194-112.912 252.194-252.194-112.911-252.195-252.194-252.195zm0 463.381c-116.449 0-211.187-94.738-211.187-211.187s94.738-211.186 211.187-211.186 211.187 94.738 211.187 211.187-94.738 211.186-211.187 211.186z" fill="#e28086"/></g><g><path d="m428.663 72.495c40.326 44.705 64.883 103.911 64.883 168.858 0 54.067-18.786 97.414-28.322 115.936-2.546 4.946-9.161 5.984-13.095 2.051l-4.008-4.008c-20.31 39.875-52.914 72.48-92.789 92.789l4.755 4.755c3.736 3.736 3.03 9.998-1.471 12.766-15.7 9.656-53.77 27.905-117.263 27.905-64.946 0-124.153-24.557-168.858-64.883 46.156 51.168 112.973 83.336 187.309 83.337 139.286 0 252.197-112.912 252.196-252.197-.001-74.336-32.169-141.153-83.337-187.309z" fill="#dd636e"/></g><g><g><path d="m299.601 372.092 72.491-72.491-61.542-61.542s-55.093 55.093-72.491 72.491z" fill="#e4f6ff"/></g><path d="m353.244 318.448 18.848-18.848-61.542-61.542s-7.993 7.993-18.848 18.848z" fill="#cbe2ff"/><g><path d="m281.561 209.069-83.447-83.447c-8.007-8.007-20.989-8.007-28.996 0l-43.495 43.495c-8.007 8.007-8.007 20.989 0 28.996l83.447 83.447c17.398-17.398 72.491-72.491 72.491-72.491z" fill="#b3e59f"/></g><g><path d="m169.117 125.622-18.848 18.848c8.007-8.007 20.989-8.007 28.996 0l83.442 83.442c11.223-11.223 18.853-18.843 18.853-18.843l-83.447-83.447c-8.007-8.007-20.989-8.007-28.996 0z" fill="#95d6a4"/></g><g><g><path d="m119.617 127.228c-1.947 0-3.896-.743-5.383-2.229l-112.005-112.005c-2.972-2.973-2.972-7.792 0-10.765 2.973-2.971 7.792-2.971 10.765 0l112.005 112.005c2.972 2.973 2.972 7.792 0 10.765-1.486 1.485-3.435 2.229-5.382 2.229z" fill="#cbe2ff"/></g></g><g><path d="m115.498 106.75-8.748 8.748c-2.084 2.084-2.376 5.361-.695 7.781l26.816 38.589 28.996-28.996-38.589-26.816c-2.419-1.683-5.696-1.39-7.78.694z" fill="#3b66c1"/></g><g><path d="m344.03 354.282h102.518v82.014h-102.518z" fill="#61a2f9" transform="matrix(.707 .707 -.707 .707 395.289 -163.734)"/></g><g><path d="m411.296 295.309-11.715-11.715c-3.171-3.171-8.311-3.171-11.482 0l-104.504 104.504c-3.171 3.171-3.171 8.311 0 11.482l11.715 11.715c3.171 3.171 8.311 3.171 11.482 0l104.504-104.504c3.17-3.17 3.17-8.311 0-11.482z" fill="#dfedff"/></g><g><path d="m411.296 295.309-11.715-11.715c-3.171-3.171-8.311-3.171-11.482 0l-13.107 13.107 23.197 23.197 13.107-13.107c3.17-3.17 3.17-8.311 0-11.482z" fill="#cbe2ff"/></g><g><path d="m506.259 390.273-11.715-11.715c-3.171-3.171-8.311-3.171-11.482 0l-104.504 104.503c-3.171 3.171-3.171 8.311 0 11.482l11.715 11.715c3.171 3.171 8.311 3.171 11.482 0l104.504-104.504c3.171-3.17 3.171-8.31 0-11.481z" fill="#dfedff"/></g></g><g><path d="m239.302 30.009h41.007v459.594h-41.007z" fill="#e28086" transform="matrix(.707 .707 -.707 .707 259.806 -107.615)"/></g><g><g><path d="m206.731 134.239-14.499 14.499c-2.972 2.973-2.972 7.792 0 10.765 1.487 1.486 3.435 2.229 5.383 2.229 1.947 0 3.896-.743 5.383-2.229l14.499-14.499z" fill="#3b66c1"/></g><g><path d="m229.928 157.436-14.499 14.499c-2.972 2.973-2.972 7.792 0 10.765 1.487 1.486 3.435 2.229 5.383 2.229 1.947 0 3.896-.743 5.383-2.229l14.499-14.499z" fill="#3b66c1"/></g><g><path d="m253.125 180.633-14.499 14.499c-2.972 2.973-2.972 7.792 0 10.765 1.487 1.486 3.435 2.229 5.383 2.229 1.947 0 3.896-.743 5.383-2.229l14.499-14.499z" fill="#3b66c1"/></g></g><g><path d="m387.426 344.18h15.001v101.493h-15.001z" fill="#5490f9" transform="matrix(.707 -.707 .707 .707 -163.584 394.923)"/></g></g></svg>