<svg id="Capa_1" enable-background="new 0 0 512 512" height="512" viewBox="0 0 512 512" width="512" xmlns="http://www.w3.org/2000/svg"><g><path d="m254.362 260.554h103.196v90.812h-103.196z" fill="#e4f6ff" transform="matrix(.707 -.707 .707 .707 -126.733 305.96)"/><path d="m319.544 233.555h26.831v90.812h-26.831z" fill="#cbe2ff" transform="matrix(.707 -.707 .707 .707 -99.734 317.143)"/><path d="m245.666 210.58h33.023v103.196h-33.023z" fill="#3b66c1" transform="matrix(.707 .707 -.707 .707 262.178 -108.598)"/><path d="m272.666 221.763h33.023v26.831h-33.023z" fill="#30579d" transform="matrix(.707 .707 -.707 .707 250.994 -135.597)"/><path d="m286.988 214.017-87.565-87.565c-8.06-8.06-21.128-8.06-29.188 0l-43.782 43.782c-8.06 8.06-8.06 21.128 0 29.188l87.565 87.565c17.512-17.512 72.97-72.97 72.97-72.97z" fill="#e7a2cb"/><path d="m170.235 126.453-18.972 18.972c8.06-8.06 21.128-8.06 29.188 0l87.565 87.565c11.297-11.297 18.972-18.972 18.972-18.972l-87.565-87.565c-8.06-8.06-21.128-8.061-29.188 0z" fill="#e278b1"/><path d="m13.08 2.244c-2.992-2.992-7.843-2.992-10.835 0-2.992 2.992-2.992 7.843 0 10.835l104.604 104.568 10.876-10.876z" fill="#cbe2ff"/><path d="m116.262 107.455-8.806 8.806c-2.098 2.098-2.392 5.396-.699 7.832l26.993 38.844 29.188-29.188-38.844-26.993c-2.436-1.693-5.735-1.398-7.832.699z" fill="#3b66c1"/><path d="m356.259 346.455h82.559v102.164h-82.559z" fill="#61a2f9" transform="matrix(.707 -.707 .707 .707 -164.665 397.564)"/><path d="m414.015 297.262-11.793-11.793c-3.192-3.192-8.366-3.192-11.558 0l-105.194 105.195c-3.192 3.192-3.192 8.366 0 11.558l11.793 11.793c3.192 3.192 8.366 3.192 11.558 0l105.194-105.195c3.192-3.192 3.192-8.366 0-11.558z" fill="#dfedff"/><path d="m414.015 297.262-11.793-11.793c-3.192-3.192-8.366-3.192-11.558 0l-13.193 13.193 23.351 23.351 13.193-13.193c3.192-3.192 3.192-8.366 0-11.558z" fill="#cbe2ff"/><path d="m509.606 392.853-11.793-11.793c-3.192-3.192-8.366-3.192-11.558 0l-105.194 105.196c-3.192 3.192-3.192 8.366 0 11.558l11.793 11.793c3.192 3.192 8.366 3.192 11.558 0l105.195-105.195c3.191-3.192 3.191-8.367-.001-11.559z" fill="#dfedff"/><g><path d="m390.038 346.456h15v102.163h-15z" fill="#5490f9" transform="matrix(.707 -.707 .707 .707 -164.666 397.536)"/></g><g fill="#3b66c1"><path d="m222.354 149.383-14.594 14.594c-1.496 1.496-3.457 2.244-5.418 2.244s-3.922-.748-5.418-2.244c-2.992-2.992-2.992-7.843 0-10.835l14.594-14.594z"/><path d="m245.704 172.734-14.594 14.594c-1.496 1.496-3.457 2.244-5.418 2.244s-3.922-.748-5.418-2.244c-2.992-2.992-2.992-7.843 0-10.835l14.594-14.594z"/><path d="m269.056 196.084-14.595 14.594c-1.496 1.496-3.457 2.244-5.418 2.244s-3.922-.748-5.418-2.244c-2.992-2.992-2.992-7.843 0-10.835l14.594-14.594z"/></g></g></svg>